<svg xmlns="http://www.w3.org/2000/svg" data-name="Layer 1" viewBox="0 0 512 640" x="0px" y="0px"><path d="M409.19,11H102.81A35.81,35.81,0,0,0,67,46.81V465.19A35.81,35.81,0,0,0,102.81,501H409.19A35.81,35.81,0,0,0,445,465.19V46.81A35.81,35.81,0,0,0,409.19,11ZM433,465.19A23.81,23.81,0,0,1,409.19,489H102.81A23.81,23.81,0,0,1,79,465.19V46.81A23.81,23.81,0,0,1,102.81,23H409.19A23.81,23.81,0,0,1,433,46.81Z"/><path d="M96,63.14a6,6,0,0,0-6,6V75.4a6,6,0,0,0,12,0V69.14A6,6,0,0,0,96,63.14Z"/><path d="M96,88.28a6,6,0,0,0-6,6v127.2a6,6,0,1,0,12,0V94.28A6,6,0,0,0,96,88.28Z"/><path d="M368.623,243.884l-13.217,12.641-5.342-5.345a6,6,0,1,0-8.489,8.48l9.49,9.5a6,6,0,0,0,8.393.1l17.459-16.7a6,6,0,1,0-8.294-8.672Z"/><path d="M359.3,216.06a40.505,40.505,0,1,0,40.5,40.51A40.555,40.555,0,0,0,359.3,216.06Zm0,69.01a28.505,28.505,0,1,1,28.5-28.5A28.538,28.538,0,0,1,359.3,285.07Z"/><path d="M298.16,276H211.43a6,6,0,0,0,0,12h86.73a6,6,0,1,0,0-12Z"/><path d="M211.43,308h58.43a6,6,0,0,0,0-12H211.43a6,6,0,0,0,0,12Z"/><path d="M164.61,267h-5.089C171.178,263,180,252.324,180,239.38V228.63a31.679,31.679,0,0,0-.558-4.756A29.508,29.508,0,0,0,150.28,199H126.95a6.222,6.222,0,0,0-5.95,6.3v34.08A29.179,29.179,0,0,0,141.039,267H135.95A24.129,24.129,0,0,0,112,290.96v16.88a6.313,6.313,0,0,0,6.2,6.16h64.16c3.313,0,5.64-2.847,5.64-6.16V290.96C188,277.864,177.706,267,164.61,267ZM133,211h17.28a17.362,17.362,0,0,1,15.648,10.012l-.477.252a10.262,10.262,0,0,1-9.023-.954,22.042,22.042,0,0,0-15.075-3.321L133,218.181Zm0,28.38V230.3l10.021-1.407a10.055,10.055,0,0,1,6.9,1.529,22.76,22.76,0,0,0,12.212,3.549,24.5,24.5,0,0,0,5.869-.746v6.156a17.5,17.5,0,0,1-35,0ZM176,302H124V290.96A12.117,12.117,0,0,1,135.95,279h28.66c6.479,0,11.39,5.481,11.39,11.96Z"/><path d="M176.13,78h-4.281c-.17,0-.333-.394-.506-.567A28.923,28.923,0,0,0,122,97.76v9.87A29.414,29.414,0,0,0,141.1,135H136.99A22.793,22.793,0,0,0,114,158.01v21.77c0,3.314,2.347,6.22,5.66,6.22h62.65c3.314,0,5.69-2.906,5.69-6.22V158.01A22.818,22.818,0,0,0,164.98,135h-4.151a29.158,29.158,0,0,0,17.536-18.324A19.406,19.406,0,0,0,176.13,78Zm-25.14,2.98A16.665,16.665,0,0,1,162.7,85.751a5.948,5.948,0,0,0-6.241,1.434,33.037,33.037,0,0,1-22.214,9.677A16.791,16.791,0,0,1,150.99,80.98ZM164.98,147A10.808,10.808,0,0,1,176,158.01V174H126V158.01A10.784,10.784,0,0,1,136.99,147ZM168,109.847a16.932,16.932,0,0,1-33.642-.979,45.029,45.029,0,0,0,24.493-8.052c2.98,4.5,6.31,6.681,9.1,7.662-.023.453.046.907.046,1.36Zm12-6.17V97.76a28.956,28.956,0,0,0-1.052-7.288,7.407,7.407,0,0,1,4.7,6.828A7.771,7.771,0,0,1,180,103.677Z"/><path d="M298.16,147H211.43a6,6,0,0,0,0,12h86.73a6,6,0,0,0,0-12Z"/><path d="M211.43,179h58.43a6,6,0,0,0,0-12H211.43a6,6,0,0,0,0,12Z"/><path d="M298.16,256H211.43a6,6,0,0,0,0,12h86.73a6,6,0,1,0,0-12Z"/><path d="M298.16,127H211.43a6,6,0,0,0,0,12h86.73a6,6,0,0,0,0-12Z"/><path d="M368.623,114.694l-13.217,12.642-5.342-5.346a6,6,0,1,0-8.489,8.481l9.49,9.5a6,6,0,0,0,8.393.095l17.459-16.7a6,6,0,1,0-8.294-8.672Z"/><path d="M359.3,86.87a40.505,40.505,0,1,0,40.5,40.51A40.556,40.556,0,0,0,359.3,86.87Zm0,69.01a28.505,28.505,0,1,1,28.5-28.5A28.538,28.538,0,0,1,359.3,155.88Z"/><path d="M359.3,345.25a40.505,40.505,0,1,0,40.5,40.51A40.556,40.556,0,0,0,359.3,345.25Zm0,69.01a28.505,28.505,0,1,1,28.5-28.5A28.538,28.538,0,0,1,359.3,414.26Z"/><path d="M298.16,406H211.43a6,6,0,0,0,0,12h86.73a6,6,0,1,0,0-12Z"/><path d="M269.86,426H211.43a6,6,0,0,0,0,12h58.43a6,6,0,0,0,0-12Z"/><path d="M164.61,396h-5.089C171.178,393,180,381.515,180,368.57V357.82a32.738,32.738,0,0,0-.56-4.857A29.59,29.59,0,0,0,150.28,328H126.95c-3.313,0-5.95,3.177-5.95,6.49v34.08c0,12.945,8.382,24.43,20.039,27.43H135.95A24.294,24.294,0,0,0,112,420.15v16.87a6.158,6.158,0,0,0,6.2,5.98h64.16a5.687,5.687,0,0,0,5.64-5.98V420.15C188,407.055,177.706,396,164.61,396ZM133,340h17.28a17.448,17.448,0,0,1,15.647,10.107l-.45.29a10.207,10.207,0,0,1-9.049-.92,22.011,22.011,0,0,0-15.075-3.31L133,347.37Zm0,28.57v-9.082l10.021-1.407a10.047,10.047,0,0,1,6.9,1.53,22.767,22.767,0,0,0,12.222,3.549,24.317,24.317,0,0,0,5.859-.749v6.159a17.5,17.5,0,0,1-35,0ZM176,431H124V420.15A12.284,12.284,0,0,1,135.95,408h28.66c6.479,0,11.39,5.672,11.39,12.15Z"/><path d="M298.16,386H211.43a6,6,0,0,0,0,12h86.73a6,6,0,1,0,0-12Z"/></svg>