<svg xmlns="http://www.w3.org/2000/svg" xmlns:xlink="http://www.w3.org/1999/xlink" version="1.1" x="0px" y="0px" viewBox="0 0 100 125" enable-background="new 0 0 100 100" xml:space="preserve"><g><path d="M86.236,29.678H13.764C8.923,29.679,5.001,33.601,5,38.441v23.118c0.001,4.84,3.923,8.762,8.763,8.763h72.473   c4.84-0.001,8.762-3.923,8.763-8.763V38.441C94.999,33.601,91.077,29.679,86.236,29.678z M92.097,61.559   c-0.001,1.623-0.654,3.079-1.716,4.144c-1.065,1.063-2.521,1.716-4.144,1.716H13.764c-1.623-0.001-3.079-0.654-4.144-1.716   c-1.063-1.065-1.716-2.521-1.716-4.144V38.441c0.001-1.623,0.654-3.079,1.716-4.144c1.065-1.063,2.521-1.716,4.144-1.716h72.473   c1.623,0.001,3.079,0.654,4.144,1.716c1.063,1.065,1.716,2.521,1.716,4.144V61.559z"/><path d="M16.913,38.871c-0.802,0-1.452,0.65-1.452,1.452v19.355c0,0.802,0.65,1.452,1.452,1.452c0.802,0,1.452-0.65,1.452-1.452   V40.323C18.364,39.521,17.714,38.871,16.913,38.871z"/></g></svg>